<svg width="64" height="64" xmlns="http://www.w3.org/2000/svg" data-name="Layer 1">

 <g>
  <title>Layer 1</title>
  <path id="svg_1" class="colorStroke222222 svgStroke" d="m32,40.83l-10.52,0a1,1 0 0 1 -1,-1l0,-14.06a2,2 0 0 0 -2,-2l-2.48,0l0,-8.58a6,6 0 0 1 6,-6l20,0a6,6 0 0 1 6,6l0,8.58l-2.47,0a2,2 0 0 0 -2,2l0,14.06a1,1 0 0 1 -1,1l-10.53,0z" stroke-width="3" stroke-miterlimit="10" stroke="#34a853" fill="none"/>
  <path id="svg_2" class="colorStroke222222 svgStroke" d="m20.48,32.52l23.05,0a0,0 0 0 1 0,0l0,7.31a1,1 0 0 1 -1,1l-21.05,0a1,1 0 0 1 -1,-1l0,-7.31a0,0 0 0 1 0,0z" stroke-width="3" stroke-miterlimit="10" stroke="#34a853" fill="none"/>
  <line id="svg_3" class="colorStroke222222 svgStroke" stroke-width="3" stroke-linejoin="round" stroke-linecap="round" stroke="#34a853" fill="none" y2="54.81" y1="49.97" x2="16" x1="16"/>
  <line id="svg_4" class="colorStroke222222 svgStroke" stroke-width="3" stroke-linejoin="round" stroke-linecap="round" stroke="#34a853" fill="none" y2="54.81" y1="49.97" x2="48" x1="48"/>
  <path id="svg_5" class="colorStroke222222 svgStroke" d="m52.48,46.78l0,-21a2,2 0 0 0 -2,-2l-4.95,0a2,2 0 0 0 -2,2l0,14.05a1,1 0 0 1 -1,1l-21,0a1,1 0 0 1 -1,-1l0,-14.06a2,2 0 0 0 -2,-2l-5,0a2,2 0 0 0 -2,2l0,21a3,3 0 0 0 3,3l34.95,0a3,3 0 0 0 3,-2.99z" stroke-width="3" stroke-miterlimit="10" stroke="#34a853" fill="none"/>
  <path d="m46.33504,25.00519c-0.17271,0 -0.34542,0 -0.51814,0c-0.17271,0 -0.39601,-0.12213 -0.51814,0c-0.12213,0.12213 0.17271,0.17271 0.34542,0.17271c0.51813,0 1.03627,0.34542 1.03627,0c0,-0.17271 -0.34542,0 -1.03627,0c-0.34542,0 -0.64026,0.05058 -0.51814,0.17271c0.12212,0.12213 0.50742,0.25877 1.5544,0.34542c0.68849,0.05698 1.38169,0 1.72711,0c0.17271,0 0.34542,0 0.17271,0c-0.17271,0 -0.69085,0 -0.86356,0c-0.34542,0 -0.69085,0 -0.51813,0c0.17271,0 0.86356,0 1.5544,0c0.51814,0 0.86356,0 1.03627,0c0.17271,0 0.39601,-0.12213 0.51814,0c0.12212,0.12213 0,0.34542 0,0.51813c0,0.17271 0,0.34542 0,0.69085c0,0.17271 0.12213,0.39601 0,0.51814c-0.12212,0.12213 -0.34542,0 -0.51814,0c-0.17271,0 -0.52036,0.02767 -0.69085,0c-0.53911,-0.08749 -0.84258,-0.25794 -1.38169,-0.34542c-0.17048,-0.02766 -0.51813,0 -0.69085,0c-0.17271,0 -0.51813,0 -0.69084,0c-0.17271,0 -0.34542,0 -0.34542,0.17271c0,0.34542 0.07924,0.46519 0.17271,0.69085c0.06609,0.15956 -0.06609,0.35857 0,0.51814c0.09347,0.22566 0.52259,0.11738 0.86356,0.17271c0.53911,0.08749 1.03627,0.17271 1.38169,0.17271c0.51814,0 0.69085,0 1.03627,0c0.17271,0 0.34542,0 0.69085,0c0.17271,0 0.34542,0 0.51814,0c0.17271,0 0.29283,0.26438 -0.34542,0c-0.22566,-0.09347 -0.2233,-0.2233 -0.34542,-0.34542c-0.12213,-0.12213 -0.14227,-0.25669 -0.51814,-0.34542c-0.50428,-0.11904 -1.21567,-0.083 -1.72712,0c-0.5391,0.08748 -0.86356,0.34542 -1.20898,0.34542c-0.17271,0 -0.39601,-0.12213 -0.51814,0c-0.12212,0.12213 -0.17271,0.17271 -0.17271,0.34542c0,0.17271 0,0.34542 0,0.51813c0,0.17271 0,0.51813 0,0.69085c0,0.17271 -0.12212,0.39601 0,0.51813c0.12212,0.12213 0.17271,0.17271 0.69085,0.17271c0.51813,0 1.03627,0 1.38169,0c0.34542,0 0.69085,0 1.03627,0c0.51814,0 0.69085,0 1.03627,0c0.17271,0 0.34542,0 0.51813,0c0.17271,0 0.34542,0 0.34542,0.17271c0,0.17271 0.06609,0.35857 0,0.51814c-0.09347,0.22566 -0.34542,0.51813 -0.51814,0.51813c-0.17271,0 -0.34542,0.17271 -0.51814,0.17271c-0.17271,0 -0.51813,0 -0.86356,0c-0.17271,0 -0.51814,0 -0.69085,0c-0.34542,0 -0.51814,0 -0.69085,0c-0.17271,0 -0.34542,0 -0.51814,0c-0.34542,0 -0.69084,0 -0.86356,0c-0.17271,0 -0.35857,-0.06609 -0.51813,0c-0.22566,0.09347 -0.34542,0.17271 -0.34542,0.34542c0,0.17271 -0.17271,0.34542 -0.17271,0.51814c0,0.17271 0,0.51813 0,0.69084c0,0.34542 0.17271,0.69085 0.34542,0.86356c0.17271,0.17271 0.69085,0.17271 1.20898,0.17271c0.34542,0 0.86356,0 1.20898,0c0.51813,0 0.8767,0.06609 1.03627,0c0.22566,-0.09347 0.51814,-0.17271 0.69085,-0.17271c0.17271,0 0.34542,0 0.51814,0c0.17271,0 0.44659,-0.24425 0.69085,0c0.12212,0.12212 0.17271,0.17271 0.17271,0.34542c0,0.17271 0,0.34542 0,0.51814c0,0.17271 -0.17271,0.17271 -0.34542,0.17271c-0.17271,0 -0.54443,0.04052 -0.86356,0.17271c-0.22566,0.09347 -0.51813,0.17271 -0.86356,0.17271c-0.51814,0 -1.20898,0 -1.89983,0c-0.51813,0 -1.00583,-0.08398 -1.38169,-0.17271c-0.16809,-0.03968 -0.51814,0 -0.69085,0c-0.17271,0 -0.34542,0 -0.51814,0c-0.17271,0 -0.25207,0.18195 -0.17271,0.51814c0.08873,0.37587 0.51813,0.69085 0.86356,0.86356c0.34542,0.17271 0.72297,0.11961 1.03627,0.34542c0.19815,0.14281 0.34542,0.17271 0.69085,0.17271c0.17271,0 0.51814,0 0.86356,0c0.51814,0 0.8728,0.07936 1.20898,0c0.37587,-0.08873 0.6604,-0.25669 1.03627,-0.34542c0.33618,-0.07936 0.69085,-0.17271 1.03627,-0.17271c0.17271,0 0.29248,0.07924 0.51814,0.17271c0.15956,0.06609 0.2388,0.35857 0.17271,0.51814c-0.09347,0.22566 -0.42466,0.29248 -0.51814,0.51814c-0.06609,0.15956 -0.34542,0.17271 -0.51813,0.17271c-0.17271,0 -0.70439,0.0363 -1.20898,-0.17271c-0.3568,-0.14779 -0.6604,-0.42941 -1.03627,-0.51814c-0.33618,-0.07936 -0.66987,-0.25793 -1.20898,-0.34542c-0.34097,-0.05533 -0.69085,-0.17271 -0.86356,-0.17271c-0.34542,0 -0.51814,0 -0.69085,0c-0.17271,0 -0.56872,-0.12212 -0.69085,0c-0.12213,0.12213 0,0.34542 0,0.51814c0,0.17271 -0.03506,0.56244 0.17271,0.69085c0.46459,0.28713 1.03627,0.17271 1.5544,0.17271c0.51814,0 0.86356,0 1.38169,0c0.34542,0 0.48769,-0.25669 0.86356,-0.34542c0.16809,-0.03968 0.34542,0 0.51814,0c0.17271,0 0.27932,0.35857 0.34542,0.51814c0.09347,0.22566 0.20261,0.31998 0.34542,0.51813c0.22581,0.3133 0.17271,0.51814 0.17271,0.69085c0,0.17271 -0.17271,0.34542 -0.34542,0.34542c-0.51814,0 -0.8728,0.07936 -1.20898,0c-0.37587,-0.08873 -0.89568,-0.46503 -1.20898,-0.69085c-0.39629,-0.28563 -0.46519,-0.42466 -0.69085,-0.51814c-0.31913,-0.13219 -0.56872,-0.29484 -0.69085,-0.17271c-0.12212,0.12212 -0.07924,0.29248 -0.17271,0.51814c-0.06609,0.15956 0,0.34542 0,0.51813c0,0.17271 -0.03044,0.42941 0.34542,0.51814c0.33618,0.07936 0.51813,0.17271 0.69084,0.17271c0.51814,0 0.69085,0 1.03627,0c0.17271,0 0.34542,0 0.51814,0c0.34542,0 0.51813,0 0.69085,0c0.17271,0 0.34542,0.17271 0.51813,0.34542c0.17271,0.17271 0.45204,0.18586 0.51814,0.34542c0.09347,0.22566 0.17271,0.34542 0.17271,0.51814c0,0.17271 0,0.34542 0,0.51814c0,0.17271 0,0.34542 0,0.51813c0,0.34542 -0.05059,0.39601 -0.17271,0.51814c-0.12212,0.12212 -0.05059,0.39601 -0.17271,0.51814c-0.12212,0.12212 -0.05059,0.2233 -0.17271,0.34542c-0.12213,0.12213 -0.05059,0.2233 -0.17271,0.34542c-0.12212,0.12212 -0.2233,0.2233 -0.34542,0.34542c-0.12212,0.12212 -0.25669,0.14227 -0.34542,0.51814c-0.03968,0.16809 -0.10662,0.18586 -0.17271,0.34542c-0.09347,0.22566 -0.29483,0.39601 -0.17271,0.51814c0.12212,0.12212 0.17271,0.17271 0.34542,0.17271c0.17271,0 0.39601,0.2233 0.51814,0.34542c0.12212,0.12212 0.34542,0 0.51814,0c0.17271,0 0.25195,-0.11977 0.34542,-0.34542c0.19828,-0.47869 0.17271,-0.69085 0.17271,-1.20898c0,-0.17271 -0.11977,-0.59737 -0.34542,-0.69085c-0.15956,-0.06609 -0.34542,0 -0.69085,0c-0.34542,0 -0.55026,0.11961 -0.86356,0.34542c-0.19815,0.14281 -0.30913,0.35897 -0.51814,0.86356c-0.14779,0.3568 -0.34542,0.69085 -0.34542,1.20898c0,0.17271 -0.05059,0.2233 -0.17271,0.34542c-0.12212,0.12212 -0.39601,0.12212 -0.51813,0c-0.12213,-0.12213 -0.2233,-0.05059 -0.34542,-0.17271c-0.12212,-0.12212 0,-0.51813 0,-0.86356c0,-0.51814 0.57792,-0.9854 0.86356,-1.38169c0.45162,-0.62659 0.92335,-1.15811 1.20898,-1.5544c0.22581,-0.3133 0.27933,-0.53128 0.34542,-0.69085c0.09347,-0.22566 0.17271,-0.34542 0.17271,-0.51814c0,-0.17271 0.05295,-0.59737 -0.17271,-0.69085c-0.15956,-0.0661 -0.34542,0 -0.51814,0c-0.34542,0 -0.86356,0.17271 -1.38169,0.51814c-0.51814,0.34542 -0.82726,0.7044 -1.03627,1.20898c-0.14779,0.3568 -0.51814,0.86356 -0.51814,1.20898c0,0.51813 -0.17271,0.69084 -0.17271,1.03627c0,0.34542 0.06609,0.53128 0,0.69085c-0.09347,0.22566 -0.31999,0.37532 -0.51814,0.51814c-0.3133,0.22581 -0.56872,0.05059 -0.69085,0.17271c-0.12212,0.12212 -0.2233,0.05058 -0.34542,0.17271c-0.12212,0.12212 -0.17271,0.17271 -0.34542,0.17271c-0.17271,0 -0.17271,-0.17271 -0.17271,-0.69085c0,-0.69085 -0.19596,-1.40039 0,-2.41796c0.17588,-0.9133 0.64147,-1.59096 1.03627,-2.07254c0.3097,-0.37778 0.34542,-0.51814 0.34542,-0.34542c0,0.17271 -0.26621,0.46678 -0.51814,1.03627c-0.28808,0.65123 -0.66459,1.56816 -1.03627,2.24525c-0.48461,0.8828 -0.92184,1.60794 -1.20898,2.07254c-0.12841,0.20777 -0.51814,0.34542 -0.69085,0.34542c-0.17271,0 -0.34542,0 -0.51814,0c-0.17271,0 -0.34542,0 -0.34542,-0.17271c0,-0.17271 -0.17271,-0.34542 -0.17271,-0.86356c0,-0.34542 0,-0.69085 0.34542,-1.20898c0.34542,-0.51813 0.70439,-0.82726 1.20898,-1.03627c0.3568,-0.14779 0.69085,-0.34542 0.86356,-0.34542c0.17271,0 0.29247,-0.07924 0.51813,-0.17271c0.15956,-0.0661 0.35682,-0.15158 0.69085,-0.34542c0.5386,-0.31256 1.10861,-0.76319 1.38169,-1.03627c0.27308,-0.27308 0.03968,-0.3408 0,-0.17271c-0.17746,0.75172 -0.69085,1.38169 -1.38169,2.07254c-0.69085,0.69085 -1.34933,1.59012 -1.72711,1.89983c-0.48158,0.3948 -0.83311,0.60212 -1.20898,0.69085c-0.16809,0.03968 -0.17271,0.17271 -0.34542,0.17271c-0.17271,0 -0.34542,0 -0.34542,-0.17271c0,-0.17271 -0.11066,-0.69977 0,-1.38169c0.08749,-0.53911 0.25195,-0.81061 0.34542,-1.03627c0.06609,-0.15956 -0.12212,-0.39601 0,-0.51813c0.12212,-0.12212 0.17271,-0.17271 0,-0.17271c-0.17271,0 -0.44659,-0.24425 -0.69085,0c-0.12213,0.12213 -0.34542,0.51814 -0.34542,0.69085c0,0.51814 -0.25669,0.83311 -0.34542,1.20898c-0.03968,0.16809 -0.17271,0.51814 -0.17271,0.86356c0,0.34542 0.12212,0.56872 0,0.69085c-0.12212,0.12212 -0.10661,0.18586 -0.17271,0.34542c-0.09347,0.22566 -0.29248,0.25195 -0.51814,0.34542c-0.15956,0.06609 -0.34542,0.17271 -0.51814,0.17271c-0.17271,0 -0.29247,0.07924 -0.51814,0.17271c-0.15956,0.06609 -0.37172,0.13219 -0.69085,0c-0.22566,-0.09347 -0.17271,-0.51814 -0.17271,-0.86356c0,-0.34542 -0.2002,-0.8932 0,-1.5544c0.18045,-0.596 0.59048,-0.59048 0.86356,-0.86356c0.27308,-0.27308 0.2233,-0.39601 0.34542,-0.51814c0.12212,-0.12212 0.17271,-0.17271 0,-0.17271c-0.17271,0 -0.34542,-0.17271 -0.69085,-0.17271c-0.17271,0 -0.48307,0.0443 -0.69085,0.17271c-0.46459,0.28713 -0.76865,0.42323 -1.20898,0.86356c-0.44033,0.44033 -0.89927,1.00391 -1.20898,1.38169c-0.3948,0.48158 -0.31452,1.08786 -0.86356,1.38169c-0.15228,0.08149 -0.34542,0.34542 -0.17271,0.34542c0.17271,0 0,-0.34542 0,-0.51814c0,-0.34542 0.51814,-0.69085 1.03627,-1.03627c0.51813,-0.34542 0.98689,-0.72741 1.38169,-1.20898c0.30971,-0.37778 0.6604,-0.77483 1.03627,-0.86356c0.16809,-0.03968 0.39601,0.12213 0.51814,0c0.12213,-0.12213 0.24425,-0.61931 0,-0.86356c-0.12213,-0.12213 -0.34542,0 -0.51814,0c-0.34542,0 -0.69085,0 -1.20898,0c-0.34542,0 -0.69085,0 -1.03627,0c-0.34542,0 -0.52275,-0.03968 -0.69085,0c-0.37587,0.08873 -0.51814,0.17271 -0.69085,0.17271c-0.17271,0 -0.34542,0 -0.69085,0c-0.17271,0 -0.51814,0 -0.69085,0c-0.17271,0 -0.51813,0 -0.51813,0.17271c0,0.17271 0.34542,0 1.03627,0c0.51813,0 1.38169,-0.17271 1.89982,-0.17271c0.69085,0 1.36887,-0.08593 2.24525,-0.17271c0.51561,-0.05106 0.91415,-0.05059 1.03627,-0.17271c0.12212,-0.12212 0.17271,0.17271 0.17271,0.34542c0,0.17271 -0.17271,0.51813 -0.51814,1.20898c-0.17271,0.34542 -0.44801,0.77945 -0.86356,1.03627c-0.46459,0.28713 -0.86356,0.51813 -1.5544,0.86356c-0.34542,0.17271 -0.69085,0.34542 -1.03627,0.34542c-0.34542,0 -0.51814,0 -1.03627,0c-0.34542,0 -0.69085,0 -0.86356,0c-0.34542,0 -0.6379,0.07924 -0.86356,0.17271c-0.31913,0.13219 -1.03627,0 -1.5544,0c-0.34542,0 -1.03627,0 -1.5544,0c-0.51813,0 -1.03627,0 -1.72711,0c-0.51813,0 -1.03627,0 -1.20898,0c-0.34542,0 -0.51814,0 -0.69085,0c-0.17271,0 -0.35857,-0.06609 -0.51814,0c-0.22566,0.09347 -0.34542,0.17271 -0.51813,0.17271c-0.17271,0 -0.34542,0 -0.51813,0c-0.17271,0 -0.34542,0 -0.51814,0c-0.17271,0 -0.34542,0 -0.51813,0c-0.17271,0 -0.17271,-0.17271 -0.34542,-0.17271c-0.17271,0 -0.51814,0 -0.69085,0c-0.17271,0 -0.51814,0 -0.86356,0c-0.17271,0 -0.51813,0 -0.69084,0c-0.51814,0 -0.69085,0 -1.03627,0c-0.34542,0 -0.51814,0 -0.86356,0c-0.34542,0 -0.69085,0 -1.03627,0c-0.17271,0 -0.53128,0.06609 -0.69085,0c-0.22566,-0.09347 -0.51813,-0.17271 -0.69085,-0.17271c-0.17271,0 -0.42466,0.05295 -0.51813,-0.17271c-0.06609,-0.15956 -0.08398,-0.31498 -0.17271,-0.69085c-0.03968,-0.16809 0,-0.51814 0,-0.69085c0,-0.17271 0,-0.51814 0,-0.69085c0,-0.17271 0,-0.51813 0,-0.69085c0,-0.17271 -0.05059,-0.2233 -0.17271,-0.34542c-0.12212,-0.12212 0,-0.34542 0,-0.51814c0,-0.17271 0,-0.34542 0,-0.51814c0,-0.17271 0,-0.34542 0,-0.51813c0,-0.17271 0,-0.34542 0,-0.69085c0,-0.34542 0,-0.51814 0,-0.86356c0,-0.17271 0,-0.34542 0,-0.51814c0,-0.17271 0,-0.34542 0,-0.51814c0,-0.17271 0,-0.34542 0,-0.51814c0,-0.17271 0,-0.34542 0,-0.51813c0,-0.34542 -0.05533,-0.6953 0,-1.03627c0.08749,-0.53911 0.17271,-0.69085 0.17271,-1.03627c0,-0.17271 0,-0.34542 0,-0.51814c0,-0.17271 0,-0.34542 0,-0.51814c0,-0.17271 0.13219,-0.37172 0,-0.69085c-0.09347,-0.22566 -0.17271,-0.51813 -0.17271,-0.86356c0,-0.34542 -0.08398,-0.6604 -0.17271,-1.03627c-0.07936,-0.33619 0.06609,-0.70399 0,-0.86356c-0.09347,-0.22566 -0.13303,-0.52275 -0.17271,-0.69085c-0.08873,-0.37586 -0.17271,-0.69085 -0.17271,-0.86356c0,-0.17271 0,-0.34542 0,-0.51814c0,-0.17271 -0.07924,-0.29247 -0.17271,-0.51813c-0.06609,-0.15956 -0.08398,-0.31498 -0.17271,-0.69085c-0.03968,-0.16809 0,-0.51813 0,-0.86356c0,-0.17271 0,-0.51814 0,-0.86356c0,-0.17271 0,-0.34542 0,-0.69085c0,-0.17271 0,-0.51813 0,-0.69085c0,-0.17271 0.29232,-0.37755 0.51813,-0.69084c0.14282,-0.19815 0.51813,-0.17271 0.69084,-0.17271c0.34542,0 0.69085,0 1.03627,0c0.17271,0 0.53128,-0.06609 0.69085,0c0.22566,0.09347 0.37755,0.29232 0.69085,0.51813c0.19815,0.14282 0.25462,0.37122 0.34542,0.51814c0.20304,0.32852 0.39601,0.2233 0.51813,0.34542c0.12213,0.12213 0.17271,0.17271 0.34542,0.17271c0.34542,0 0.56872,0.12213 0.69085,0c0.12213,-0.12213 0.05295,-0.59737 -0.17271,-0.69085c-0.47869,-0.19828 -0.86356,-0.17271 -1.38169,-0.17271c-0.17271,0 -0.73029,-0.19828 -1.20898,0c-0.45132,0.18694 -0.72074,0.66541 -0.86356,0.86356c-0.22581,0.3133 -0.47845,0.52275 -0.51813,0.69085c-0.08873,0.37586 -0.25195,0.46519 -0.34542,0.69085c-0.06609,0.15956 0,0.34542 0.17271,0.34542c0.34542,0 0.84258,-0.08523 1.38169,-0.17271c0.51144,-0.083 1.23527,-0.21324 1.5544,-0.34542c0.45132,-0.18694 0.49716,-0.43065 1.03627,-0.51814c0.17048,-0.02767 0.17271,0.17271 0.17271,0.34542c0,0.17271 0,0.34542 0,0.69085c0,0.17271 -0.31036,0.38972 -0.51814,0.51814c-0.46459,0.28713 -1.02034,0.43113 -1.72711,0.51813c-0.51425,0.06331 -1.03627,0 -1.20898,0c-0.17271,0 -0.17271,-0.17271 0,-0.17271c0.17271,0 0.86356,0 1.38169,0c0.51813,0 1.03627,0 1.20898,0c0.17271,0 0.34542,0 0.34542,0.17271c0,0.17271 0.03968,0.35004 0,0.51813c-0.08873,0.37586 -0.70439,0.65455 -1.20898,0.86356c-0.71359,0.29558 -1.04942,0.45204 -1.20898,0.51813c-0.22566,0.09347 -0.34542,0.17271 -0.17271,0.17271c0.17271,0 0.35256,0.02638 1.03627,-0.17271c0.52438,-0.1527 1.00583,-0.42941 1.38169,-0.51813c0.50427,-0.11904 0.34096,-0.05533 0,0c-0.53911,0.08748 -1.2494,0.43056 -2.07254,0.86356c-0.55112,0.28991 -1.2393,0.70775 -1.03627,1.03627c0.0908,0.14692 0.69602,0.08441 1.38169,0c0.70677,-0.08701 1.17854,-0.42941 1.5544,-0.51814c0.16809,-0.03968 0.51814,0.17271 0.51814,0c0,-0.17271 -0.25195,0.11977 -0.34542,0.34542c-0.06609,0.15956 0.22861,0.25558 0.51813,0c0.46684,-0.41212 0.46755,-0.91414 0.34542,-1.03627c-0.12213,-0.12213 -0.90011,0.46876 -1.38169,0.86356c-0.37778,0.3097 -0.74143,0.39601 -0.86356,0.51813c-0.12213,0.12213 0,0.34542 0,0.86356c0,0.34542 0.02223,0.84099 0.51813,0.69085c0.596,-0.18045 1.16901,-0.7967 1.5544,-1.72711c0.27251,-0.6579 0.60336,-1.53343 0.69085,-2.07254c0.05533,-0.34096 0.10662,-0.70399 0.17271,-0.86356c0.09347,-0.22566 0.51351,-0.30574 0.34542,-0.34542c-0.75173,-0.17746 -0.85638,1.56042 -1.72711,2.59067c-1.02785,1.21615 -1.51811,2.08608 -1.72711,2.59067c-0.14779,0.3568 -0.34542,0.34542 -0.34542,0.51813c0,0.17271 0,0.34542 0.17271,0.34542c0.17271,0 0.70009,0.07936 1.03627,0c0.75173,-0.17746 1.03627,-0.86356 1.5544,-1.5544c0.51814,-0.69085 0.86356,-1.38169 0.69085,-1.38169c-0.17271,0 -0.10185,0.21294 -0.51813,0.86356c-0.59602,0.93153 -1.38169,1.72711 -2.07254,2.76338c-0.34542,0.51814 -0.95703,0.81061 -0.86356,1.03627c0.06609,0.15956 0.46876,-0.20927 0.86356,-0.69085c0.46456,-0.56667 0.92185,-1.26252 1.20898,-1.72711c0.25682,-0.41555 0.34542,-0.51814 0.17271,0.17271c-0.17271,0.69085 -0.47588,1.5772 -0.86356,2.24525c-0.31256,0.5386 -0.53504,1.35137 -0.86356,1.5544c-0.29383,0.1816 -0.32894,-0.34151 -0.17271,-1.03627c0.19321,-0.8592 0.48781,-1.22589 0.69084,-1.5544c0.0908,-0.14692 0.09335,-0.16347 0.17271,0.17271c0.08873,0.37587 0.17271,1.20898 0.17271,1.72711c0,0.51814 -0.36479,1.19487 -0.86356,1.89983c-0.35967,0.50835 -0.6604,0.94754 -1.03627,1.03627c-0.16809,0.03968 -0.17271,-0.17271 -0.17271,-0.34542c0,-0.86356 0.72437,-2.226 1.20898,-3.1088c0.37168,-0.67708 0.34542,-1.03627 0.51813,-1.03627c0.17271,0 0.43113,0.3295 0.51814,1.03627c0.06331,0.51425 0,1.38169 0,2.07254c0,0.69085 0,1.03627 0,1.38169c0,0.17271 -0.17271,0.34542 -0.34542,0.34542c-0.17271,0 -0.1527,-0.16646 0,-0.69085c0.1991,-0.68371 0.51813,-1.38169 0.86356,-2.07254c0.17271,-0.34542 0.17271,-0.51814 0.17271,-0.34542c0,0.34542 0.01691,0.83323 0.34542,1.03627c0.14692,0.0908 0.41062,0.20197 0.69085,0c0.44307,-0.31935 0.25669,-1.00583 0.34542,-1.38169c0.11904,-0.50428 0.12213,-0.74143 0,-0.86356c-0.12213,-0.12213 -0.46755,-0.05059 -0.34542,-0.17271c0.12213,-0.12212 0.34542,-0.34542 0.34542,-0.17271c0,0.51813 0,1.5544 0,2.41796c0,0.69085 0.07936,1.39093 0,1.72711c-0.08873,0.37587 -0.05059,0.56872 -0.17271,0.69085c-0.12213,0.12212 -0.34542,0.17271 -0.69085,0.17271c-0.34542,0 -0.69085,0.17271 -1.20898,0.34542c-0.51814,0.17271 -0.56872,0.2233 -0.69085,0.34542c-0.12213,0.12213 -0.34542,0 -0.51813,0c-0.17271,0 -0.34542,0 -0.51813,0c-0.34542,0 -0.64026,0.2233 -0.51813,0.34542c0.12213,0.12212 0.51813,0 1.03627,0c0.51813,0 1.20898,0 2.24525,0c0.86356,0 2.24734,0.01405 3.45423,-0.17271c1.03821,-0.16065 1.72711,-0.34542 2.41796,-0.34542c0.51813,0 0.86356,0 1.20898,0c0.34542,0 0.51814,0 1.03627,0c0.51814,0 0.86356,0 1.20898,0c0.34542,0 1.03627,-0.17271 1.38169,-0.17271c0.34542,0 0.86356,0 1.03627,0c0.51814,0 0.69085,0 1.03627,0c0.34542,0 0.86356,0.17271 1.03627,0.17271c0.17271,0 0.51813,0 0.69084,0.17271c0.17271,0.17271 0.2233,0.39601 0.34542,0.51814c0.12212,0.12212 0.17271,0.17271 0.17271,0.34542c0,0.17271 -0.11976,0.25195 -0.34542,0.34542c-0.31913,0.13219 -0.51814,0 -0.69085,0c-0.34542,0 -0.49716,-0.08522 -1.03627,-0.17271c-0.34096,-0.05533 -0.86802,0.05533 -1.20898,0c-0.53911,-0.08749 -0.86356,-0.17271 -1.20898,-0.17271c-0.69085,0 -1.38169,0 -2.07254,0c-0.51813,0 -1.03627,0.17271 -1.5544,0.17271c-0.34542,0 -0.69085,0 -1.5544,0c-0.69084,0 -1.02345,0.08593 -1.89982,0.17271c-0.51561,0.05106 -1.01529,0.25794 -1.5544,0.34542c-0.51144,0.083 -0.6379,0.07924 -0.86356,0.17271c-0.31913,0.13219 -0.51814,0.17271 -0.69085,0.17271c-0.34542,0 -0.69085,0 -1.20898,0c-0.51813,0 -1.04296,-0.083 -1.5544,0c-0.53911,0.08749 -0.86356,0.34542 -1.20898,0.34542c-0.34542,0 -0.20777,0.0443 0,0.17271c0.46459,0.28713 1.20898,0.34542 1.89983,0.51813c0.69085,0.17271 1.38169,0.17271 2.24525,0.17271c1.03627,0 2.41796,0 3.62694,0c0.69085,0 1.38169,0 1.72711,0c0.51813,0 1.03627,0 1.72711,0c0.51813,0 1.13111,-0.16497 1.72711,-0.34542c0.6612,-0.2002 1.38169,-0.17271 1.89983,-0.17271c0.51813,0 1.03627,0 1.38169,0c0.34542,0 0.83312,0.25669 1.20898,0.34542c0.16809,0.03968 0.45204,0.15956 0.51813,0c0.09347,-0.22566 -0.34801,-0.1305 -0.69085,-0.17271c-0.70677,-0.08701 -1.73064,-0.25995 -2.76338,-0.34542c-1.04698,-0.08665 -2.59067,-0.17271 -3.62694,-0.17271c-0.86356,0 -1.5544,0 -2.07254,0c-0.17271,0 0,0 0.17271,0c0.69085,0 2.07051,0.18978 3.45423,0.34542c1.72485,0.19402 3.45423,0.17271 4.49049,0.17271c0.86356,0 1.5544,0 2.07254,0c0.34542,0 0.69085,0 1.03627,0c0.34542,0 0.51814,0 0.86356,0l0.17271,0l0.34542,0l0.17271,0" id="svg_7" stroke-width="3" stroke="#34a853" fill="none"/>
  <path d="m37.18134,42.10361c0,0.17271 0.17271,0.17271 0.51814,0.17271c0.51813,0 1.03627,0 1.5544,0.17271c0.51813,0.17271 0.86356,0.17271 1.20898,0.17271c0.17271,0 0.34542,0 0.51814,0c0.17271,0 0.34542,0 0.86356,0c0.17271,0 0.31498,-0.08398 0.69085,-0.17271c0.16809,-0.03968 0.70399,0.06609 0.86356,0c0.22566,-0.09347 0.39601,-0.29484 0.51814,-0.17271c0.24425,0.24425 0.06205,0.69977 0.17271,1.38169c0.08749,0.53911 0.09335,1.04551 0.17271,1.38169c0.08873,0.37587 0.30574,0.52275 0.34542,0.69085c0.08873,0.37587 0.10662,0.53128 0.17271,0.69085c0.09347,0.22566 0.3151,0.53504 0.51814,0.86356c0.0908,0.14692 0.17271,0.17271 0.34542,0.17271c0.17271,0 0.34542,0 0.34542,-0.17271c0,-0.34542 0.12212,-0.74143 0,-0.86356c-0.12212,-0.12212 -0.52072,-0.04221 -0.86356,0c-0.70677,0.08701 -1.47864,0.84583 -2.41796,1.20898c-0.82141,0.31756 -1.38169,0.51814 -1.89983,0.51814c-0.17271,0 -0.34542,0 -0.51814,0c-0.17271,0 -0.34542,0 -0.34542,-0.17271c0,-0.17271 0.20707,-0.61008 0.69085,-0.86356c0.76492,-0.40078 1.48479,-1.03624 2.59067,-1.38169c1.1657,-0.36414 2.07254,-0.17271 2.59067,-0.17271c0.34542,0 0.51814,0 0.69085,0c0.17271,0 0.382,0.10629 0.51813,0c0.56129,-0.43824 0.34542,-1.20898 0.51814,-2.07254c0.17271,-0.86356 0.34542,-1.72711 0.34542,-2.41796c0,-0.34542 0.08398,0.14227 0.17271,0.51813c0.15872,0.67236 0,1.38169 0,1.72712l0,0.51814l0,0.17271" id="svg_8" stroke-width="3" stroke="#34a853" fill="none"/>
  <text xml:space="preserve" text-anchor="start" font-family="Noto Sans JP" font-size="14" id="svg_12" y="17.06047" x="31.48187" stroke-width="0" stroke="#34a853" fill="#000000"/>
 </g>
</svg>